<mxfile host="app.diagrams.net" agent="Mozilla/5.0 (X11; Linux x86_64) AppleWebKit/537.36 (KHTML, like Gecko) Chrome/126.0.0.0 Safari/537.36" version="24.7.4">
  <diagram name="Page-1" id="YbEUAhbpnP9VasGTE4DJ">
    <mxGraphModel dx="1852" dy="613" grid="1" gridSize="10" guides="1" tooltips="1" connect="1" arrows="1" fold="1" page="1" pageScale="1" pageWidth="850" pageHeight="1100" math="0" shadow="0">
      <root>
        <mxCell id="0" />
        <mxCell id="1" parent="0" />
        <mxCell id="HNWLfw4C3tD-m9cIfEpX-5" value="" style="edgeStyle=orthogonalEdgeStyle;rounded=0;orthogonalLoop=1;jettySize=auto;html=1;" edge="1" parent="1" source="HNWLfw4C3tD-m9cIfEpX-1" target="HNWLfw4C3tD-m9cIfEpX-4">
          <mxGeometry relative="1" as="geometry" />
        </mxCell>
        <mxCell id="HNWLfw4C3tD-m9cIfEpX-1" value="Start" style="ellipse;whiteSpace=wrap;html=1;" vertex="1" parent="1">
          <mxGeometry x="200" y="110" width="140" height="70" as="geometry" />
        </mxCell>
        <mxCell id="HNWLfw4C3tD-m9cIfEpX-7" value="" style="edgeStyle=orthogonalEdgeStyle;rounded=0;orthogonalLoop=1;jettySize=auto;html=1;" edge="1" parent="1" source="HNWLfw4C3tD-m9cIfEpX-4">
          <mxGeometry relative="1" as="geometry">
            <mxPoint x="-80.00000000000023" y="309.9999999999999" as="targetPoint" />
          </mxGeometry>
        </mxCell>
        <mxCell id="HNWLfw4C3tD-m9cIfEpX-9" value="false" style="edgeLabel;html=1;align=center;verticalAlign=middle;resizable=0;points=[];" vertex="1" connectable="0" parent="HNWLfw4C3tD-m9cIfEpX-7">
          <mxGeometry x="-0.4538" y="1" relative="1" as="geometry">
            <mxPoint as="offset" />
          </mxGeometry>
        </mxCell>
        <mxCell id="HNWLfw4C3tD-m9cIfEpX-11" value="" style="edgeStyle=orthogonalEdgeStyle;rounded=0;orthogonalLoop=1;jettySize=auto;html=1;" edge="1" parent="1" source="HNWLfw4C3tD-m9cIfEpX-4" target="HNWLfw4C3tD-m9cIfEpX-10">
          <mxGeometry relative="1" as="geometry" />
        </mxCell>
        <mxCell id="HNWLfw4C3tD-m9cIfEpX-18" value="true" style="edgeLabel;html=1;align=center;verticalAlign=middle;resizable=0;points=[];" vertex="1" connectable="0" parent="HNWLfw4C3tD-m9cIfEpX-11">
          <mxGeometry x="-0.6037" y="-2" relative="1" as="geometry">
            <mxPoint as="offset" />
          </mxGeometry>
        </mxCell>
        <mxCell id="HNWLfw4C3tD-m9cIfEpX-4" value="is have token, browserId and authLogId?" style="rhombus;whiteSpace=wrap;html=1;" vertex="1" parent="1">
          <mxGeometry x="115" y="270" width="310" height="80" as="geometry" />
        </mxCell>
        <mxCell id="HNWLfw4C3tD-m9cIfEpX-8" value="End" style="ellipse;whiteSpace=wrap;html=1;" vertex="1" parent="1">
          <mxGeometry x="-220" y="275" width="140" height="70" as="geometry" />
        </mxCell>
        <mxCell id="HNWLfw4C3tD-m9cIfEpX-13" value="" style="edgeStyle=orthogonalEdgeStyle;rounded=0;orthogonalLoop=1;jettySize=auto;html=1;" edge="1" parent="1" source="HNWLfw4C3tD-m9cIfEpX-10" target="HNWLfw4C3tD-m9cIfEpX-12">
          <mxGeometry relative="1" as="geometry" />
        </mxCell>
        <mxCell id="HNWLfw4C3tD-m9cIfEpX-10" value="Get userId from token" style="whiteSpace=wrap;html=1;" vertex="1" parent="1">
          <mxGeometry x="205" y="440" width="130" height="60" as="geometry" />
        </mxCell>
        <mxCell id="HNWLfw4C3tD-m9cIfEpX-15" value="" style="edgeStyle=orthogonalEdgeStyle;rounded=0;orthogonalLoop=1;jettySize=auto;html=1;" edge="1" parent="1" source="HNWLfw4C3tD-m9cIfEpX-12" target="HNWLfw4C3tD-m9cIfEpX-14">
          <mxGeometry relative="1" as="geometry" />
        </mxCell>
        <mxCell id="HNWLfw4C3tD-m9cIfEpX-12" value="Get UserOnBrowsers by UserId and BrowserId" style="whiteSpace=wrap;html=1;" vertex="1" parent="1">
          <mxGeometry x="185" y="580" width="170" height="60" as="geometry" />
        </mxCell>
        <mxCell id="HNWLfw4C3tD-m9cIfEpX-20" value="" style="edgeStyle=orthogonalEdgeStyle;rounded=0;orthogonalLoop=1;jettySize=auto;html=1;" edge="1" parent="1" source="HNWLfw4C3tD-m9cIfEpX-14" target="HNWLfw4C3tD-m9cIfEpX-19">
          <mxGeometry relative="1" as="geometry" />
        </mxCell>
        <mxCell id="HNWLfw4C3tD-m9cIfEpX-21" value="true" style="edgeLabel;html=1;align=center;verticalAlign=middle;resizable=0;points=[];" vertex="1" connectable="0" parent="HNWLfw4C3tD-m9cIfEpX-20">
          <mxGeometry x="-0.6593" relative="1" as="geometry">
            <mxPoint as="offset" />
          </mxGeometry>
        </mxCell>
        <mxCell id="HNWLfw4C3tD-m9cIfEpX-14" value="isExist?" style="rhombus;whiteSpace=wrap;html=1;" vertex="1" parent="1">
          <mxGeometry x="210" y="710" width="120" height="80" as="geometry" />
        </mxCell>
        <mxCell id="HNWLfw4C3tD-m9cIfEpX-16" value="" style="endArrow=classic;html=1;rounded=0;entryX=1;entryY=0.5;entryDx=0;entryDy=0;exitX=0;exitY=0.5;exitDx=0;exitDy=0;" edge="1" parent="1" source="HNWLfw4C3tD-m9cIfEpX-14" target="HNWLfw4C3tD-m9cIfEpX-50">
          <mxGeometry width="50" height="50" relative="1" as="geometry">
            <mxPoint x="-20" y="580" as="sourcePoint" />
            <mxPoint x="30" y="530" as="targetPoint" />
            <Array as="points" />
          </mxGeometry>
        </mxCell>
        <mxCell id="HNWLfw4C3tD-m9cIfEpX-17" value="false" style="edgeLabel;html=1;align=center;verticalAlign=middle;resizable=0;points=[];" vertex="1" connectable="0" parent="HNWLfw4C3tD-m9cIfEpX-16">
          <mxGeometry x="-0.8532" relative="1" as="geometry">
            <mxPoint as="offset" />
          </mxGeometry>
        </mxCell>
        <mxCell id="HNWLfw4C3tD-m9cIfEpX-23" value="" style="edgeStyle=orthogonalEdgeStyle;rounded=0;orthogonalLoop=1;jettySize=auto;html=1;" edge="1" parent="1" source="HNWLfw4C3tD-m9cIfEpX-19" target="HNWLfw4C3tD-m9cIfEpX-22">
          <mxGeometry relative="1" as="geometry" />
        </mxCell>
        <mxCell id="HNWLfw4C3tD-m9cIfEpX-19" value="Get authLog by authLogId" style="whiteSpace=wrap;html=1;" vertex="1" parent="1">
          <mxGeometry x="210" y="880" width="120" height="60" as="geometry" />
        </mxCell>
        <mxCell id="HNWLfw4C3tD-m9cIfEpX-28" value="" style="edgeStyle=orthogonalEdgeStyle;rounded=0;orthogonalLoop=1;jettySize=auto;html=1;" edge="1" parent="1" source="HNWLfw4C3tD-m9cIfEpX-22" target="HNWLfw4C3tD-m9cIfEpX-27">
          <mxGeometry relative="1" as="geometry" />
        </mxCell>
        <mxCell id="HNWLfw4C3tD-m9cIfEpX-31" value="true" style="edgeLabel;html=1;align=center;verticalAlign=middle;resizable=0;points=[];" vertex="1" connectable="0" parent="HNWLfw4C3tD-m9cIfEpX-28">
          <mxGeometry x="-0.5125" relative="1" as="geometry">
            <mxPoint as="offset" />
          </mxGeometry>
        </mxCell>
        <mxCell id="HNWLfw4C3tD-m9cIfEpX-22" value="isExist?" style="rhombus;whiteSpace=wrap;html=1;" vertex="1" parent="1">
          <mxGeometry x="210" y="1020" width="120" height="80" as="geometry" />
        </mxCell>
        <mxCell id="HNWLfw4C3tD-m9cIfEpX-33" value="" style="edgeStyle=orthogonalEdgeStyle;rounded=0;orthogonalLoop=1;jettySize=auto;html=1;" edge="1" parent="1" source="HNWLfw4C3tD-m9cIfEpX-27" target="HNWLfw4C3tD-m9cIfEpX-32">
          <mxGeometry relative="1" as="geometry" />
        </mxCell>
        <mxCell id="HNWLfw4C3tD-m9cIfEpX-34" value="false" style="edgeLabel;html=1;align=center;verticalAlign=middle;resizable=0;points=[];" vertex="1" connectable="0" parent="HNWLfw4C3tD-m9cIfEpX-33">
          <mxGeometry x="-0.5481" relative="1" as="geometry">
            <mxPoint as="offset" />
          </mxGeometry>
        </mxCell>
        <mxCell id="HNWLfw4C3tD-m9cIfEpX-27" value="isExpired?" style="rhombus;whiteSpace=wrap;html=1;" vertex="1" parent="1">
          <mxGeometry x="210" y="1180" width="120" height="80" as="geometry" />
        </mxCell>
        <mxCell id="HNWLfw4C3tD-m9cIfEpX-29" value="" style="endArrow=none;html=1;rounded=0;exitX=0;exitY=0.5;exitDx=0;exitDy=0;" edge="1" parent="1" source="HNWLfw4C3tD-m9cIfEpX-27">
          <mxGeometry width="50" height="50" relative="1" as="geometry">
            <mxPoint x="80" y="1180" as="sourcePoint" />
            <mxPoint x="-150" y="910" as="targetPoint" />
            <Array as="points">
              <mxPoint x="-150" y="1220" />
            </Array>
          </mxGeometry>
        </mxCell>
        <mxCell id="HNWLfw4C3tD-m9cIfEpX-30" value="true" style="edgeLabel;html=1;align=center;verticalAlign=middle;resizable=0;points=[];" vertex="1" connectable="0" parent="HNWLfw4C3tD-m9cIfEpX-29">
          <mxGeometry x="-0.8096" y="1" relative="1" as="geometry">
            <mxPoint as="offset" />
          </mxGeometry>
        </mxCell>
        <mxCell id="HNWLfw4C3tD-m9cIfEpX-36" value="" style="edgeStyle=orthogonalEdgeStyle;rounded=0;orthogonalLoop=1;jettySize=auto;html=1;" edge="1" parent="1" source="HNWLfw4C3tD-m9cIfEpX-32">
          <mxGeometry relative="1" as="geometry">
            <mxPoint x="270" y="1480" as="targetPoint" />
          </mxGeometry>
        </mxCell>
        <mxCell id="HNWLfw4C3tD-m9cIfEpX-32" value="Compare encrypted token with original token" style="whiteSpace=wrap;html=1;" vertex="1" parent="1">
          <mxGeometry x="185" y="1350" width="170" height="60" as="geometry" />
        </mxCell>
        <mxCell id="HNWLfw4C3tD-m9cIfEpX-44" value="" style="edgeStyle=orthogonalEdgeStyle;rounded=0;orthogonalLoop=1;jettySize=auto;html=1;" edge="1" parent="1" source="HNWLfw4C3tD-m9cIfEpX-37" target="HNWLfw4C3tD-m9cIfEpX-43">
          <mxGeometry relative="1" as="geometry" />
        </mxCell>
        <mxCell id="HNWLfw4C3tD-m9cIfEpX-37" value="isCorrect?" style="rhombus;whiteSpace=wrap;html=1;" vertex="1" parent="1">
          <mxGeometry x="210" y="1480" width="120" height="80" as="geometry" />
        </mxCell>
        <mxCell id="HNWLfw4C3tD-m9cIfEpX-38" value="" style="endArrow=none;html=1;rounded=0;exitX=0;exitY=0.5;exitDx=0;exitDy=0;" edge="1" parent="1" source="HNWLfw4C3tD-m9cIfEpX-37">
          <mxGeometry width="50" height="50" relative="1" as="geometry">
            <mxPoint x="180" y="1380" as="sourcePoint" />
            <mxPoint x="-150" y="1220" as="targetPoint" />
            <Array as="points">
              <mxPoint x="-150" y="1520" />
            </Array>
          </mxGeometry>
        </mxCell>
        <mxCell id="HNWLfw4C3tD-m9cIfEpX-39" value="false" style="edgeLabel;html=1;align=center;verticalAlign=middle;resizable=0;points=[];" vertex="1" connectable="0" parent="HNWLfw4C3tD-m9cIfEpX-38">
          <mxGeometry x="-0.85" relative="1" as="geometry">
            <mxPoint as="offset" />
          </mxGeometry>
        </mxCell>
        <mxCell id="HNWLfw4C3tD-m9cIfEpX-47" value="" style="edgeStyle=orthogonalEdgeStyle;rounded=0;orthogonalLoop=1;jettySize=auto;html=1;" edge="1" parent="1" source="HNWLfw4C3tD-m9cIfEpX-42" target="HNWLfw4C3tD-m9cIfEpX-46">
          <mxGeometry relative="1" as="geometry" />
        </mxCell>
        <mxCell id="HNWLfw4C3tD-m9cIfEpX-42" value="Creating authLog with this encryptToken, browserId and userId" style="whiteSpace=wrap;html=1;" vertex="1" parent="1">
          <mxGeometry x="145" y="1790" width="250" height="60" as="geometry" />
        </mxCell>
        <mxCell id="HNWLfw4C3tD-m9cIfEpX-45" value="" style="edgeStyle=orthogonalEdgeStyle;rounded=0;orthogonalLoop=1;jettySize=auto;html=1;" edge="1" parent="1" source="HNWLfw4C3tD-m9cIfEpX-43" target="HNWLfw4C3tD-m9cIfEpX-42">
          <mxGeometry relative="1" as="geometry" />
        </mxCell>
        <mxCell id="HNWLfw4C3tD-m9cIfEpX-43" value="Generate new token" style="whiteSpace=wrap;html=1;" vertex="1" parent="1">
          <mxGeometry x="205" y="1650" width="130" height="60" as="geometry" />
        </mxCell>
        <mxCell id="HNWLfw4C3tD-m9cIfEpX-49" value="" style="edgeStyle=orthogonalEdgeStyle;rounded=0;orthogonalLoop=1;jettySize=auto;html=1;" edge="1" parent="1" source="HNWLfw4C3tD-m9cIfEpX-46" target="HNWLfw4C3tD-m9cIfEpX-48">
          <mxGeometry relative="1" as="geometry" />
        </mxCell>
        <mxCell id="HNWLfw4C3tD-m9cIfEpX-46" value="Send res { token, browserId, authLogId }" style="shape=parallelogram;perimeter=parallelogramPerimeter;whiteSpace=wrap;html=1;fixedSize=1;" vertex="1" parent="1">
          <mxGeometry x="170" y="1940" width="200" height="60" as="geometry" />
        </mxCell>
        <mxCell id="HNWLfw4C3tD-m9cIfEpX-48" value="Finish" style="ellipse;whiteSpace=wrap;html=1;" vertex="1" parent="1">
          <mxGeometry x="470" y="1935" width="140" height="70" as="geometry" />
        </mxCell>
        <mxCell id="HNWLfw4C3tD-m9cIfEpX-50" value="Remove token, browserId and authLogId from cookies" style="whiteSpace=wrap;html=1;" vertex="1" parent="1">
          <mxGeometry x="-245" y="720" width="190" height="60" as="geometry" />
        </mxCell>
        <mxCell id="HNWLfw4C3tD-m9cIfEpX-51" value="" style="endArrow=classic;html=1;rounded=0;exitX=0;exitY=0.5;exitDx=0;exitDy=0;entryX=0.5;entryY=1;entryDx=0;entryDy=0;" edge="1" parent="1" source="HNWLfw4C3tD-m9cIfEpX-19" target="HNWLfw4C3tD-m9cIfEpX-50">
          <mxGeometry width="50" height="50" relative="1" as="geometry">
            <mxPoint x="-80" y="930" as="sourcePoint" />
            <mxPoint x="-30" y="880" as="targetPoint" />
            <Array as="points">
              <mxPoint x="-150" y="910" />
            </Array>
          </mxGeometry>
        </mxCell>
        <mxCell id="HNWLfw4C3tD-m9cIfEpX-52" value="" style="endArrow=classic;html=1;rounded=0;exitX=0.5;exitY=0;exitDx=0;exitDy=0;entryX=0.5;entryY=1;entryDx=0;entryDy=0;" edge="1" parent="1" source="HNWLfw4C3tD-m9cIfEpX-50" target="HNWLfw4C3tD-m9cIfEpX-8">
          <mxGeometry width="50" height="50" relative="1" as="geometry">
            <mxPoint x="-80" y="630" as="sourcePoint" />
            <mxPoint x="-30" y="580" as="targetPoint" />
          </mxGeometry>
        </mxCell>
      </root>
    </mxGraphModel>
  </diagram>
</mxfile>
